# xmcd
#
# Track frame offsets: 
#        150
#        4521
#        21888
#        45180
#        64679
#        93054
#        123826
#        155097
#        187437
#        255937
#
# Disc length: 3683 seconds
#
# Revision: 0
# Processed by: cddbd v1.5.2PL0 Copyright (c) Steve Scherf et al.
# Submitted via: ExactAudioCopyFreeDBPlugin 1.0
#
DISCID=710e610a
DTITLE=Phil Bee's Freedom - Caught Live
DYEAR=2014
DGENRE=Blues
TTITLE0=Kairos
TTITLE1=Octopus-E
TTITLE2=For My Brother
TTITLE3=Ain't No Love In The Heart Of The City
TTITLE4=Big Legged Woman
TTITLE5=I'll Take Care
TTITLE6=Where Do I Have To Stand
TTITLE7=Soulshine
TTITLE8=Old Love
TTITLE9=Sweet Rain
EXTD=
EXTT0=
EXTT1=
EXTT2=
EXTT3=
EXTT4=
EXTT5=
EXTT6=
EXTT7=
EXTT8=
EXTT9=
PLAYORDER=
